<?xml version="1.0" encoding="utf-8"?>
<!-- Generator: Adobe Illustrator 16.0.0, SVG Export Plug-In . SVG Version: 6.00 Build 0)  -->
<!DOCTYPE svg PUBLIC "-//W3C//DTD SVG 1.1//EN" "http://www.w3.org/Graphics/SVG/1.1/DTD/svg11.dtd">
<svg version="1.1" id="Layer_1" xmlns="http://www.w3.org/2000/svg" xmlns:xlink="http://www.w3.org/1999/xlink" x="0px" y="0px"
	 width="965.959px" height="231.808px" viewBox="0 0 965.959 231.808" enable-background="new 0 0 965.959 231.808"
	 xml:space="preserve">
<g>
	<defs>
		<rect id="SVGID_1_" width="965.959" height="231.808"/>
	</defs>
	<clipPath id="SVGID_2_">
		<use xlink:href="#SVGID_1_"  overflow="visible"/>
	</clipPath>
	<path clip-path="url(#SVGID_2_)" d="M153.817,224.516c0,0.382-0.071,0.723-0.212,1.02c-0.142,0.298-0.343,0.55-0.603,0.754
		c-0.257,0.205-0.568,0.359-0.928,0.464c-0.359,0.105-0.752,0.158-1.185,0.158c-0.263,0-0.518-0.021-0.759-0.062
		c-0.24-0.042-0.455-0.097-0.644-0.157c-0.193-0.063-0.354-0.131-0.487-0.198c-0.13-0.072-0.229-0.133-0.289-0.188
		c-0.062-0.058-0.104-0.134-0.133-0.231c-0.028-0.1-0.042-0.236-0.042-0.408c0-0.104,0.006-0.192,0.017-0.265
		c0.011-0.072,0.025-0.129,0.042-0.174s0.04-0.075,0.071-0.097c0.028-0.019,0.065-0.027,0.102-0.027
		c0.062,0,0.153,0.036,0.272,0.113c0.118,0.072,0.263,0.154,0.438,0.242c0.173,0.088,0.379,0.17,0.617,0.243
		c0.237,0.078,0.512,0.114,0.82,0.114c0.232,0,0.442-0.026,0.631-0.073c0.187-0.051,0.351-0.125,0.489-0.222
		c0.136-0.096,0.244-0.22,0.318-0.366c0.076-0.151,0.113-0.329,0.113-0.533c0-0.21-0.054-0.387-0.162-0.528
		c-0.107-0.145-0.251-0.271-0.427-0.383c-0.178-0.11-0.376-0.21-0.597-0.294c-0.22-0.085-0.45-0.175-0.685-0.269
		c-0.234-0.096-0.464-0.2-0.687-0.32c-0.223-0.119-0.424-0.262-0.6-0.436c-0.178-0.172-0.319-0.376-0.427-0.613
		c-0.107-0.238-0.161-0.521-0.161-0.854c0-0.291,0.057-0.571,0.17-0.841c0.113-0.268,0.283-0.504,0.509-0.705
		c0.226-0.2,0.509-0.361,0.849-0.482c0.339-0.121,0.738-0.186,1.191-0.186c0.198,0,0.396,0.018,0.596,0.053
		c0.199,0.03,0.377,0.072,0.538,0.124c0.161,0.048,0.297,0.103,0.41,0.161c0.114,0.057,0.198,0.108,0.258,0.153
		c0.056,0.044,0.096,0.082,0.116,0.116c0.02,0.033,0.034,0.07,0.042,0.112c0.009,0.04,0.014,0.091,0.023,0.152
		c0.008,0.06,0.014,0.137,0.014,0.225c0,0.094-0.006,0.175-0.014,0.243c-0.009,0.07-0.02,0.127-0.04,0.17
		c-0.02,0.045-0.042,0.075-0.071,0.097c-0.028,0.019-0.059,0.027-0.09,0.027c-0.051,0-0.122-0.027-0.218-0.091
		c-0.093-0.059-0.215-0.125-0.362-0.195c-0.15-0.066-0.325-0.133-0.529-0.194c-0.201-0.06-0.43-0.092-0.69-0.092
		c-0.232,0-0.436,0.026-0.614,0.08c-0.176,0.054-0.323,0.127-0.436,0.224c-0.113,0.095-0.198,0.212-0.258,0.345
		c-0.056,0.134-0.084,0.275-0.084,0.431c0,0.215,0.054,0.396,0.164,0.543c0.11,0.146,0.254,0.273,0.433,0.385
		c0.175,0.11,0.376,0.21,0.602,0.299c0.229,0.088,0.459,0.18,0.693,0.272c0.235,0.097,0.467,0.201,0.696,0.316
		c0.23,0.117,0.433,0.254,0.611,0.421c0.176,0.167,0.317,0.365,0.425,0.598C153.76,223.918,153.817,224.198,153.817,224.516"/>
	<path clip-path="url(#SVGID_2_)" d="M110.5,225.206c0,0.087-0.003,0.163-0.009,0.229c-0.006,0.065-0.014,0.125-0.028,0.171
		c-0.014,0.052-0.031,0.097-0.053,0.134c-0.023,0.037-0.062,0.087-0.115,0.14c-0.056,0.056-0.172,0.138-0.346,0.25
		c-0.177,0.113-0.393,0.224-0.654,0.332c-0.261,0.104-0.559,0.196-0.896,0.268c-0.337,0.077-0.708,0.113-1.106,0.113
		c-0.694,0-1.317-0.116-1.873-0.345c-0.556-0.23-1.03-0.57-1.424-1.021c-0.39-0.452-0.693-1.005-0.904-1.668
		c-0.21-0.66-0.317-1.42-0.317-2.283c0-0.882,0.115-1.668,0.342-2.359s0.548-1.275,0.958-1.756c0.413-0.48,0.904-0.847,1.477-1.1
		c0.573-0.252,1.208-0.378,1.904-0.378c0.309,0,0.606,0.029,0.898,0.087c0.29,0.058,0.559,0.128,0.806,0.218
		c0.247,0.089,0.466,0.19,0.657,0.306c0.191,0.115,0.326,0.211,0.399,0.283c0.073,0.071,0.123,0.13,0.143,0.169
		c0.023,0.039,0.042,0.084,0.054,0.135c0.014,0.053,0.025,0.115,0.033,0.184c0.009,0.074,0.015,0.158,0.015,0.258
		c0,0.108-0.006,0.2-0.017,0.279c-0.012,0.076-0.029,0.141-0.051,0.194c-0.022,0.051-0.048,0.09-0.079,0.115
		c-0.031,0.022-0.067,0.037-0.109,0.037c-0.079,0-0.185-0.055-0.323-0.16c-0.135-0.107-0.312-0.227-0.531-0.354
		c-0.216-0.129-0.477-0.248-0.789-0.354c-0.309-0.106-0.679-0.16-1.115-0.16c-0.471,0-0.901,0.093-1.286,0.284
		c-0.387,0.187-0.718,0.465-0.991,0.833c-0.275,0.366-0.489,0.816-0.637,1.345c-0.152,0.528-0.228,1.135-0.228,1.815
		c0,0.673,0.073,1.271,0.219,1.786c0.143,0.521,0.354,0.952,0.624,1.303c0.272,0.348,0.606,0.61,0.999,0.788
		c0.396,0.18,0.842,0.27,1.342,0.27c0.422,0,0.792-0.053,1.107-0.158c0.314-0.103,0.584-0.221,0.805-0.35
		c0.222-0.13,0.405-0.245,0.548-0.351c0.143-0.102,0.256-0.155,0.337-0.155c0.039,0,0.07,0.009,0.099,0.024
		c0.028,0.018,0.05,0.047,0.067,0.097c0.014,0.045,0.028,0.109,0.036,0.192C110.497,224.975,110.5,225.08,110.5,225.206
		 M95.999,222.081c0.017-0.713-0.14-1.275-0.474-1.681c-0.332-0.405-0.823-0.607-1.475-0.607c-0.337,0-0.629,0.063-0.881,0.188
		c-0.253,0.124-0.463,0.292-0.632,0.5c-0.171,0.208-0.303,0.454-0.396,0.729c-0.093,0.278-0.146,0.565-0.158,0.87H95.999z
		 M97.364,222.48c0,0.214-0.054,0.37-0.16,0.459c-0.107,0.089-0.228,0.136-0.365,0.136h-4.856c0,0.413,0.043,0.779,0.124,1.11
		c0.082,0.33,0.22,0.61,0.413,0.847c0.191,0.235,0.441,0.419,0.747,0.545c0.309,0.126,0.682,0.188,1.129,0.188
		c0.351,0,0.662-0.029,0.938-0.087c0.272-0.056,0.511-0.121,0.71-0.195c0.2-0.068,0.365-0.133,0.494-0.189
		c0.129-0.06,0.225-0.087,0.292-0.087c0.037,0,0.073,0.009,0.102,0.027c0.03,0.021,0.053,0.049,0.069,0.089
		c0.018,0.037,0.031,0.092,0.04,0.157c0.006,0.069,0.011,0.153,0.011,0.25c0,0.074-0.002,0.137-0.008,0.188
		c-0.006,0.053-0.012,0.098-0.02,0.14c-0.008,0.042-0.023,0.079-0.042,0.112c-0.02,0.032-0.045,0.063-0.073,0.093
		c-0.031,0.031-0.121,0.082-0.27,0.149c-0.146,0.065-0.34,0.135-0.575,0.2c-0.236,0.066-0.508,0.124-0.817,0.179
		c-0.309,0.05-0.641,0.079-0.992,0.079c-0.609,0-1.143-0.088-1.6-0.258c-0.458-0.171-0.842-0.424-1.157-0.758
		c-0.311-0.334-0.547-0.752-0.708-1.257c-0.157-0.505-0.238-1.092-0.238-1.76c0-0.635,0.084-1.208,0.247-1.716
		c0.165-0.506,0.402-0.938,0.713-1.292c0.309-0.354,0.683-0.623,1.123-0.814c0.438-0.188,0.93-0.285,1.472-0.285
		c0.581,0,1.075,0.095,1.485,0.282c0.407,0.186,0.744,0.438,1.008,0.753c0.264,0.314,0.455,0.686,0.579,1.109
		c0.123,0.426,0.185,0.878,0.185,1.359V222.48z M88.539,226.505c0,0.043-0.009,0.082-0.029,0.11
		c-0.019,0.028-0.053,0.056-0.104,0.077c-0.047,0.023-0.112,0.039-0.193,0.052c-0.079,0.011-0.177,0.017-0.292,0.017
		c-0.127,0-0.228-0.006-0.31-0.017c-0.078-0.013-0.14-0.028-0.187-0.052c-0.048-0.021-0.079-0.049-0.096-0.077
		c-0.014-0.028-0.023-0.067-0.023-0.11v-0.981c-0.423,0.469-0.839,0.808-1.252,1.021c-0.409,0.216-0.828,0.323-1.249,0.323
		c-0.494,0-0.91-0.085-1.247-0.247c-0.337-0.166-0.609-0.39-0.817-0.671c-0.211-0.284-0.359-0.613-0.45-0.989
		c-0.089-0.373-0.134-0.831-0.134-1.367v-4.493c0-0.045,0.008-0.083,0.028-0.111s0.056-0.058,0.109-0.082
		c0.057-0.025,0.127-0.039,0.217-0.049c0.087-0.008,0.197-0.014,0.328-0.014c0.132,0,0.242,0.006,0.329,0.014
		c0.087,0.01,0.157,0.023,0.21,0.049c0.051,0.024,0.087,0.054,0.11,0.082s0.034,0.066,0.034,0.111v4.311
		c0,0.433,0.031,0.779,0.095,1.042c0.062,0.261,0.157,0.481,0.286,0.665c0.13,0.186,0.292,0.324,0.489,0.427
		c0.199,0.103,0.429,0.155,0.693,0.155c0.34,0,0.677-0.121,1.014-0.363c0.34-0.241,0.697-0.595,1.076-1.063v-5.174
		c0-0.045,0.008-0.083,0.028-0.111c0.019-0.028,0.056-0.058,0.112-0.082c0.054-0.025,0.124-0.039,0.208-0.049
		c0.084-0.008,0.196-0.014,0.334-0.014c0.132,0,0.241,0.006,0.329,0.014c0.086,0.01,0.157,0.023,0.205,0.049
		c0.05,0.024,0.086,0.054,0.112,0.082c0.025,0.028,0.037,0.066,0.037,0.111V226.505z M80.648,219.587
		c0,0.12-0.003,0.221-0.008,0.303c-0.006,0.084-0.018,0.149-0.031,0.194c-0.017,0.047-0.04,0.081-0.062,0.104
		c-0.025,0.027-0.059,0.037-0.104,0.037s-0.098-0.01-0.16-0.037c-0.064-0.023-0.135-0.046-0.214-0.071
		c-0.081-0.025-0.168-0.049-0.266-0.07c-0.101-0.023-0.208-0.034-0.323-0.034c-0.138,0-0.27,0.029-0.402,0.084
		c-0.132,0.053-0.272,0.145-0.415,0.271c-0.146,0.126-0.298,0.294-0.458,0.502c-0.157,0.208-0.334,0.463-0.525,0.764v4.871
		c0,0.043-0.011,0.082-0.033,0.11c-0.023,0.028-0.06,0.056-0.107,0.077c-0.051,0.023-0.118,0.039-0.206,0.052
		c-0.089,0.011-0.201,0.017-0.339,0.017c-0.129,0-0.239-0.006-0.329-0.017c-0.087-0.013-0.157-0.028-0.208-0.052
		c-0.053-0.021-0.089-0.049-0.106-0.077c-0.02-0.028-0.031-0.067-0.031-0.11v-7.404c0-0.045,0.009-0.083,0.025-0.111
		c0.017-0.028,0.051-0.058,0.098-0.082c0.051-0.025,0.113-0.039,0.191-0.049c0.076-0.008,0.177-0.014,0.304-0.014
		c0.12,0,0.221,0.006,0.3,0.014c0.079,0.01,0.141,0.023,0.185,0.049c0.042,0.024,0.076,0.054,0.096,0.082
		c0.017,0.028,0.028,0.066,0.028,0.111v1.078c0.202-0.298,0.393-0.539,0.57-0.724c0.18-0.188,0.348-0.335,0.508-0.441
		c0.158-0.106,0.315-0.18,0.472-0.222c0.157-0.039,0.315-0.063,0.472-0.063c0.073,0,0.154,0.006,0.244,0.016
		c0.09,0.009,0.186,0.022,0.283,0.045c0.099,0.021,0.189,0.045,0.268,0.073c0.081,0.027,0.137,0.056,0.168,0.08
		c0.034,0.029,0.056,0.055,0.067,0.078c0.011,0.027,0.02,0.058,0.028,0.098c0.009,0.039,0.014,0.095,0.017,0.168
		C80.648,219.358,80.648,219.46,80.648,219.587 M75.984,216.675c0,0.103-0.005,0.194-0.017,0.268
		c-0.011,0.079-0.028,0.143-0.053,0.188c-0.025,0.047-0.056,0.081-0.09,0.103c-0.037,0.023-0.076,0.034-0.12,0.034H72.71v9.23
		c0,0.042-0.011,0.082-0.034,0.113c-0.022,0.033-0.059,0.061-0.115,0.079c-0.053,0.021-0.126,0.035-0.216,0.05
		c-0.093,0.014-0.205,0.021-0.342,0.021c-0.132,0-0.245-0.008-0.338-0.021c-0.092-0.015-0.168-0.028-0.221-0.05
		c-0.057-0.019-0.093-0.046-0.115-0.079c-0.023-0.031-0.034-0.071-0.034-0.113v-9.23h-2.993c-0.045,0-0.084-0.011-0.121-0.034
		c-0.037-0.021-0.065-0.056-0.087-0.103c-0.02-0.045-0.04-0.108-0.053-0.188c-0.015-0.073-0.02-0.165-0.02-0.268
		c0-0.104,0.005-0.198,0.02-0.277c0.013-0.081,0.033-0.144,0.053-0.191c0.022-0.051,0.05-0.084,0.087-0.107
		c0.037-0.021,0.076-0.035,0.121-0.035h7.402c0.044,0,0.083,0.014,0.12,0.035c0.034,0.023,0.065,0.057,0.09,0.107
		c0.025,0.048,0.042,0.11,0.053,0.191C75.979,216.477,75.984,216.572,75.984,216.675 M62.166,227.252
		c0-0.318-0.132-0.563-0.39-0.735c-0.261-0.172-0.615-0.264-1.059-0.274l-1.917-0.065c-0.174,0.134-0.318,0.266-0.43,0.389
		c-0.113,0.124-0.203,0.242-0.27,0.355c-0.064,0.113-0.109,0.222-0.135,0.331c-0.025,0.108-0.036,0.222-0.036,0.337
		c0,0.357,0.18,0.629,0.542,0.811c0.362,0.185,0.868,0.276,1.513,0.276c0.413,0,0.755-0.039,1.034-0.118
		c0.278-0.082,0.5-0.185,0.671-0.316c0.168-0.134,0.292-0.284,0.365-0.452C62.127,227.618,62.166,227.44,62.166,227.252
		 M61.484,221.387c0-0.503-0.141-0.896-0.416-1.18c-0.278-0.284-0.671-0.424-1.182-0.424c-0.264,0-0.492,0.045-0.685,0.132
		c-0.197,0.087-0.357,0.208-0.486,0.36c-0.129,0.156-0.225,0.332-0.289,0.532c-0.062,0.2-0.095,0.41-0.095,0.628
		c0,0.49,0.14,0.874,0.415,1.153c0.278,0.28,0.665,0.42,1.165,0.42c0.27,0,0.503-0.042,0.7-0.128
		c0.196-0.085,0.359-0.203,0.488-0.355c0.129-0.147,0.225-0.321,0.289-0.521C61.45,221.808,61.484,221.602,61.484,221.387
		 M63.604,219.437c0,0.194-0.025,0.331-0.076,0.416c-0.053,0.084-0.121,0.128-0.202,0.128h-1.062
		c0.191,0.198,0.326,0.413,0.402,0.653c0.078,0.239,0.115,0.488,0.115,0.747c0,0.427-0.067,0.805-0.205,1.134
		c-0.137,0.329-0.331,0.607-0.587,0.834c-0.255,0.229-0.558,0.402-0.91,0.523c-0.351,0.12-0.741,0.182-1.168,0.182
		c-0.3,0-0.59-0.039-0.859-0.121c-0.272-0.079-0.483-0.179-0.629-0.3c-0.098,0.097-0.18,0.211-0.244,0.337
		c-0.062,0.126-0.093,0.273-0.093,0.438c0,0.19,0.088,0.351,0.267,0.477c0.176,0.126,0.415,0.194,0.71,0.205l1.935,0.082
		c0.368,0.011,0.705,0.061,1.011,0.151c0.306,0.093,0.572,0.22,0.797,0.388s0.401,0.374,0.528,0.617
		c0.127,0.245,0.188,0.527,0.188,0.851c0,0.339-0.07,0.663-0.213,0.971s-0.362,0.576-0.654,0.811
		c-0.295,0.231-0.668,0.418-1.123,0.553c-0.456,0.131-0.992,0.199-1.612,0.199c-0.599,0-1.106-0.05-1.528-0.152
		c-0.418-0.101-0.764-0.237-1.03-0.416c-0.27-0.173-0.464-0.384-0.584-0.628c-0.121-0.245-0.183-0.508-0.183-0.794
		c0-0.18,0.023-0.356,0.067-0.525c0.043-0.173,0.11-0.331,0.2-0.485c0.092-0.155,0.205-0.301,0.34-0.442
		c0.132-0.14,0.289-0.276,0.463-0.416c-0.27-0.136-0.466-0.308-0.595-0.516c-0.129-0.207-0.194-0.437-0.194-0.677
		c0-0.333,0.067-0.633,0.205-0.896c0.138-0.264,0.308-0.5,0.511-0.708c-0.171-0.203-0.306-0.432-0.404-0.685
		c-0.099-0.255-0.149-0.564-0.149-0.926c0-0.424,0.073-0.803,0.216-1.137c0.14-0.334,0.34-0.617,0.592-0.847
		c0.25-0.231,0.554-0.407,0.907-0.531c0.354-0.123,0.742-0.185,1.157-0.185c0.225,0,0.435,0.011,0.629,0.036
		c0.194,0.025,0.377,0.059,0.548,0.104h2.238c0.092,0,0.163,0.044,0.208,0.133C63.581,219.113,63.604,219.252,63.604,219.437
		 M54.944,226.505c0,0.043-0.011,0.082-0.034,0.11c-0.022,0.028-0.056,0.056-0.106,0.077c-0.051,0.023-0.118,0.039-0.205,0.052
		c-0.09,0.011-0.2,0.017-0.329,0.017c-0.137,0-0.25-0.006-0.34-0.017c-0.087-0.013-0.154-0.028-0.205-0.052
		c-0.048-0.021-0.084-0.049-0.106-0.077c-0.023-0.028-0.034-0.067-0.034-0.11v-4.335c0-0.424-0.031-0.764-0.098-1.021
		c-0.065-0.257-0.16-0.479-0.287-0.669c-0.126-0.184-0.289-0.328-0.492-0.425c-0.199-0.099-0.429-0.148-0.693-0.148
		c-0.339,0-0.679,0.119-1.019,0.36c-0.343,0.242-0.699,0.597-1.07,1.063v5.175c0,0.043-0.012,0.082-0.034,0.11
		s-0.058,0.056-0.106,0.077c-0.051,0.023-0.118,0.039-0.205,0.052c-0.09,0.011-0.203,0.017-0.34,0.017
		c-0.129,0-0.239-0.006-0.329-0.017c-0.087-0.013-0.157-0.028-0.207-0.052c-0.054-0.021-0.09-0.049-0.107-0.077
		c-0.02-0.028-0.031-0.067-0.031-0.11v-7.404c0-0.045,0.008-0.083,0.025-0.111s0.051-0.058,0.099-0.082
		c0.05-0.025,0.112-0.039,0.191-0.049c0.075-0.008,0.176-0.014,0.303-0.014c0.121,0,0.222,0.006,0.3,0.014
		c0.079,0.01,0.141,0.023,0.186,0.049c0.042,0.024,0.075,0.054,0.095,0.082c0.017,0.028,0.028,0.066,0.028,0.111v0.98
		c0.415-0.466,0.831-0.811,1.247-1.025c0.413-0.216,0.831-0.327,1.252-0.327c0.494,0,0.91,0.085,1.247,0.253
		c0.337,0.165,0.612,0.392,0.82,0.668c0.208,0.282,0.356,0.61,0.446,0.984c0.093,0.376,0.138,0.828,0.138,1.354V226.505z
		 M46.214,216.599c0,0.32-0.059,0.536-0.18,0.651s-0.342,0.172-0.665,0.172c-0.32,0-0.537-0.057-0.654-0.169
		c-0.118-0.112-0.178-0.323-0.178-0.637c0-0.318,0.06-0.534,0.18-0.649c0.121-0.116,0.343-0.174,0.666-0.174
		c0.32,0,0.536,0.056,0.654,0.169C46.155,216.075,46.214,216.288,46.214,216.599 M46.06,226.505c0,0.043-0.012,0.082-0.034,0.11
		s-0.059,0.056-0.107,0.077c-0.05,0.023-0.118,0.039-0.205,0.052c-0.09,0.011-0.202,0.017-0.34,0.017
		c-0.129,0-0.238-0.006-0.328-0.017c-0.087-0.013-0.158-0.028-0.208-0.052c-0.053-0.021-0.09-0.049-0.107-0.077
		c-0.02-0.028-0.031-0.067-0.031-0.11v-7.404c0-0.04,0.011-0.074,0.031-0.106c0.017-0.033,0.054-0.063,0.107-0.081
		c0.05-0.023,0.121-0.04,0.208-0.051c0.09-0.012,0.199-0.018,0.328-0.018c0.138,0,0.25,0.006,0.34,0.018
		c0.087,0.011,0.155,0.027,0.205,0.051c0.048,0.019,0.085,0.048,0.107,0.081c0.022,0.032,0.034,0.066,0.034,0.106V226.505z
		 M40.829,221.297c-0.369-0.455-0.725-0.801-1.067-1.039c-0.344-0.24-0.7-0.361-1.073-0.361c-0.346,0-0.641,0.084-0.879,0.247
		c-0.242,0.166-0.438,0.382-0.59,0.653c-0.152,0.266-0.261,0.573-0.328,0.913c-0.07,0.339-0.104,0.684-0.104,1.036
		c0,0.373,0.028,0.736,0.087,1.095c0.056,0.353,0.157,0.671,0.3,0.949c0.143,0.276,0.332,0.499,0.567,0.665
		c0.236,0.169,0.534,0.253,0.888,0.253c0.182,0,0.356-0.025,0.525-0.076c0.165-0.048,0.337-0.132,0.514-0.247
		c0.174-0.116,0.359-0.264,0.55-0.448c0.191-0.184,0.396-0.409,0.61-0.678V221.297z M42.193,226.505
		c0,0.043-0.008,0.082-0.028,0.116c-0.019,0.028-0.054,0.059-0.099,0.078c-0.047,0.017-0.109,0.032-0.185,0.045
		c-0.078,0.011-0.171,0.017-0.281,0.017c-0.115,0-0.21-0.006-0.286-0.017c-0.079-0.013-0.14-0.028-0.191-0.045
		c-0.048-0.02-0.084-0.05-0.106-0.078c-0.023-0.034-0.034-0.073-0.034-0.116v-0.981c-0.388,0.427-0.792,0.753-1.213,0.99
		c-0.419,0.236-0.879,0.354-1.376,0.354c-0.545,0-1.008-0.107-1.393-0.317c-0.382-0.211-0.693-0.498-0.932-0.858
		c-0.239-0.357-0.413-0.779-0.522-1.265c-0.11-0.487-0.166-0.997-0.166-1.535c0-0.636,0.07-1.212,0.205-1.722
		c0.137-0.514,0.343-0.953,0.609-1.313c0.27-0.36,0.604-0.639,1-0.837c0.399-0.192,0.856-0.292,1.378-0.292
		c0.433,0,0.829,0.098,1.189,0.285c0.359,0.191,0.715,0.468,1.067,0.837v-4.305c0-0.036,0.008-0.073,0.027-0.111
		c0.02-0.036,0.056-0.063,0.113-0.081c0.053-0.019,0.123-0.037,0.207-0.05c0.085-0.014,0.194-0.019,0.326-0.019
		c0.137,0,0.25,0.005,0.337,0.019c0.087,0.013,0.157,0.031,0.205,0.05c0.051,0.019,0.087,0.045,0.113,0.081
		c0.024,0.038,0.036,0.075,0.036,0.111V226.505z M33.342,226.505c0,0.043-0.011,0.082-0.033,0.11
		c-0.023,0.028-0.059,0.056-0.107,0.077c-0.051,0.023-0.118,0.039-0.205,0.052c-0.09,0.011-0.202,0.017-0.34,0.017
		c-0.129,0-0.238-0.006-0.328-0.017c-0.087-0.013-0.158-0.028-0.208-0.052c-0.053-0.021-0.09-0.049-0.107-0.077
		c-0.02-0.028-0.031-0.067-0.031-0.11v-10.99c0-0.045,0.011-0.084,0.031-0.116c0.017-0.031,0.054-0.061,0.107-0.084
		c0.05-0.019,0.121-0.037,0.208-0.047c0.09-0.011,0.199-0.017,0.328-0.017c0.138,0,0.25,0.006,0.34,0.017
		c0.087,0.01,0.154,0.028,0.205,0.047c0.048,0.023,0.084,0.053,0.107,0.084c0.022,0.032,0.033,0.071,0.033,0.116V226.505z
		 M29.476,226.505c0,0.043-0.009,0.082-0.028,0.11c-0.02,0.028-0.054,0.056-0.104,0.077c-0.048,0.023-0.112,0.039-0.194,0.052
		c-0.079,0.011-0.177,0.017-0.292,0.017c-0.126,0-0.227-0.006-0.309-0.017c-0.079-0.013-0.14-0.028-0.188-0.052
		c-0.048-0.021-0.079-0.049-0.095-0.077c-0.014-0.028-0.023-0.067-0.023-0.11v-0.981c-0.424,0.469-0.839,0.808-1.252,1.021
		c-0.41,0.216-0.829,0.323-1.25,0.323c-0.494,0-0.909-0.085-1.246-0.247c-0.338-0.166-0.61-0.39-0.818-0.671
		c-0.21-0.284-0.359-0.613-0.449-0.989c-0.09-0.373-0.135-0.831-0.135-1.367v-4.493c0-0.045,0.009-0.083,0.028-0.111
		c0.02-0.028,0.057-0.058,0.11-0.082c0.056-0.025,0.126-0.039,0.216-0.049c0.087-0.008,0.197-0.014,0.329-0.014
		c0.132,0,0.241,0.006,0.328,0.014c0.087,0.01,0.158,0.023,0.211,0.049c0.05,0.024,0.087,0.054,0.109,0.082
		c0.023,0.028,0.034,0.066,0.034,0.111v4.311c0,0.433,0.031,0.779,0.096,1.042c0.061,0.261,0.157,0.481,0.286,0.665
		c0.129,0.186,0.292,0.324,0.488,0.427c0.199,0.103,0.43,0.155,0.694,0.155c0.34,0,0.677-0.121,1.013-0.363
		c0.34-0.241,0.697-0.595,1.076-1.063v-5.174c0-0.045,0.008-0.083,0.028-0.111c0.019-0.028,0.056-0.058,0.113-0.082
		c0.053-0.025,0.123-0.039,0.207-0.049c0.085-0.008,0.197-0.014,0.335-0.014c0.131,0,0.241,0.006,0.328,0.014
		c0.087,0.01,0.157,0.023,0.205,0.049c0.05,0.024,0.087,0.054,0.112,0.082c0.026,0.028,0.037,0.066,0.037,0.111V226.505z
		 M19.704,222.809c0-0.396-0.039-0.776-0.112-1.133c-0.073-0.358-0.197-0.668-0.365-0.938c-0.172-0.27-0.402-0.48-0.691-0.639
		c-0.292-0.158-0.654-0.234-1.087-0.234c-0.401,0-0.744,0.071-1.033,0.216c-0.287,0.14-0.525,0.342-0.711,0.604
		c-0.188,0.262-0.325,0.57-0.415,0.925c-0.09,0.357-0.135,0.744-0.135,1.168c0,0.405,0.036,0.787,0.11,1.145
		c0.073,0.355,0.196,0.668,0.37,0.931c0.172,0.269,0.405,0.479,0.694,0.637c0.292,0.155,0.654,0.232,1.086,0.232
		c0.396,0,0.739-0.071,1.028-0.213c0.293-0.144,0.531-0.343,0.716-0.601c0.188-0.258,0.326-0.565,0.413-0.921
		C19.659,223.63,19.704,223.241,19.704,222.809 M21.133,222.72c0,0.604-0.078,1.16-0.238,1.665
		c-0.158,0.508-0.396,0.947-0.711,1.315c-0.314,0.366-0.71,0.652-1.185,0.858c-0.475,0.205-1.025,0.31-1.648,0.31
		c-0.609,0-1.14-0.095-1.592-0.273s-0.831-0.445-1.132-0.789c-0.3-0.345-0.525-0.766-0.674-1.26
		c-0.149-0.492-0.221-1.053-0.221-1.677c0-0.604,0.078-1.159,0.232-1.665c0.158-0.508,0.394-0.946,0.708-1.314
		c0.315-0.369,0.71-0.65,1.182-0.854c0.472-0.205,1.022-0.308,1.651-0.308c0.61,0,1.141,0.09,1.593,0.274
		c0.452,0.179,0.831,0.443,1.131,0.789c0.303,0.345,0.528,0.766,0.68,1.258C21.06,221.544,21.133,222.1,21.133,222.72
		 M11.575,226.498c0,0.042-0.011,0.082-0.034,0.113c-0.022,0.033-0.059,0.061-0.114,0.079c-0.054,0.021-0.124,0.035-0.209,0.05
		c-0.087,0.014-0.196,0.021-0.334,0.021c-0.126,0-0.236-0.008-0.325-0.021c-0.09-0.015-0.16-0.028-0.214-0.05
		c-0.053-0.019-0.09-0.046-0.112-0.079c-0.02-0.031-0.031-0.071-0.031-0.113v-9.272h-0.017l-3.793,9.313
		c-0.017,0.039-0.04,0.07-0.071,0.101c-0.028,0.025-0.073,0.049-0.129,0.07c-0.059,0.017-0.126,0.031-0.207,0.039
		c-0.079,0.008-0.175,0.014-0.284,0.014c-0.115,0-0.214-0.006-0.295-0.017c-0.084-0.013-0.152-0.028-0.208-0.045
		c-0.053-0.02-0.096-0.047-0.126-0.07c-0.031-0.028-0.051-0.061-0.062-0.092l-3.627-9.313H1.374v9.272
		c0,0.042-0.011,0.082-0.034,0.113c-0.02,0.033-0.059,0.061-0.115,0.079c-0.054,0.021-0.124,0.035-0.213,0.05
		c-0.088,0.014-0.2,0.021-0.338,0.021c-0.131,0-0.241-0.008-0.328-0.021c-0.087-0.015-0.157-0.028-0.211-0.05
		c-0.05-0.019-0.086-0.046-0.106-0.079C0.009,226.58,0,226.54,0,226.498v-9.791c0-0.231,0.06-0.396,0.18-0.492
		c0.121-0.098,0.256-0.15,0.405-0.15h0.856c0.174,0,0.329,0.019,0.461,0.053c0.132,0.029,0.247,0.084,0.345,0.152
		c0.098,0.074,0.18,0.164,0.247,0.274c0.065,0.107,0.124,0.238,0.171,0.387l3.086,7.708H5.79L9,216.954
		c0.059-0.163,0.126-0.306,0.197-0.418c0.073-0.116,0.151-0.209,0.236-0.276c0.084-0.071,0.179-0.117,0.283-0.15
		c0.104-0.028,0.225-0.045,0.362-0.045h0.896c0.082,0,0.16,0.014,0.236,0.037c0.073,0.026,0.135,0.066,0.188,0.116
		c0.053,0.052,0.095,0.118,0.126,0.197c0.034,0.081,0.051,0.177,0.051,0.292V226.498z"/>
	<path clip-path="url(#SVGID_2_)" d="M146.63,226.505c0,0.042-0.012,0.082-0.034,0.109c-0.023,0.03-0.056,0.057-0.107,0.078
		c-0.05,0.023-0.118,0.041-0.205,0.051c-0.09,0.012-0.2,0.018-0.328,0.018c-0.138,0-0.25-0.006-0.34-0.018
		c-0.087-0.01-0.155-0.027-0.205-0.051c-0.048-0.021-0.084-0.048-0.107-0.078c-0.022-0.027-0.034-0.067-0.034-0.109v-4.335
		c0-0.424-0.031-0.765-0.098-1.02c-0.065-0.259-0.16-0.48-0.286-0.668c-0.127-0.186-0.29-0.329-0.492-0.427
		c-0.199-0.099-0.429-0.149-0.693-0.149c-0.34,0-0.68,0.121-1.02,0.362c-0.342,0.241-0.699,0.595-1.069,1.062v5.175
		c0,0.042-0.012,0.082-0.034,0.109c-0.022,0.03-0.059,0.057-0.107,0.078c-0.05,0.023-0.118,0.041-0.205,0.051
		c-0.089,0.012-0.202,0.018-0.339,0.018c-0.129,0-0.239-0.006-0.329-0.018c-0.087-0.01-0.157-0.027-0.208-0.051
		c-0.053-0.021-0.089-0.048-0.106-0.078c-0.02-0.027-0.031-0.067-0.031-0.109v-7.404c0-0.045,0.008-0.082,0.025-0.112
		c0.017-0.028,0.05-0.057,0.098-0.082c0.051-0.024,0.113-0.039,0.191-0.048c0.076-0.008,0.177-0.014,0.303-0.014
		c0.121,0,0.222,0.006,0.301,0.014c0.078,0.009,0.14,0.023,0.185,0.048c0.042,0.025,0.076,0.054,0.096,0.082
		c0.016,0.03,0.028,0.067,0.028,0.112v0.98c0.415-0.467,0.831-0.809,1.246-1.025c0.413-0.216,0.832-0.325,1.253-0.325
		c0.494,0,0.91,0.085,1.246,0.253c0.337,0.165,0.612,0.39,0.82,0.667c0.208,0.281,0.357,0.609,0.447,0.983
		c0.093,0.376,0.138,0.828,0.138,1.353V226.505z M136.824,222.081c0.017-0.714-0.14-1.275-0.475-1.68
		c-0.331-0.407-0.822-0.609-1.474-0.609c-0.337,0-0.629,0.065-0.881,0.191c-0.253,0.124-0.464,0.292-0.632,0.5
		c-0.172,0.208-0.304,0.451-0.396,0.728c-0.093,0.277-0.146,0.565-0.157,0.87H136.824z M138.188,222.482
		c0,0.213-0.053,0.367-0.159,0.458c-0.107,0.089-0.228,0.134-0.365,0.134h-4.855c0,0.413,0.042,0.782,0.123,1.112
		c0.082,0.329,0.219,0.609,0.413,0.845c0.191,0.236,0.441,0.418,0.747,0.545c0.309,0.126,0.682,0.188,1.129,0.188
		c0.351,0,0.662-0.028,0.938-0.087c0.272-0.056,0.51-0.121,0.71-0.193c0.199-0.07,0.365-0.135,0.494-0.191
		c0.129-0.059,0.225-0.087,0.292-0.087c0.037,0,0.073,0.009,0.101,0.028c0.031,0.02,0.053,0.047,0.07,0.087
		c0.017,0.039,0.031,0.093,0.04,0.16c0.005,0.067,0.011,0.151,0.011,0.25c0,0.072-0.003,0.134-0.008,0.185
		c-0.006,0.054-0.012,0.099-0.02,0.141c-0.009,0.042-0.023,0.079-0.042,0.112c-0.02,0.03-0.045,0.065-0.073,0.093
		c-0.031,0.031-0.121,0.082-0.27,0.148c-0.146,0.067-0.339,0.135-0.575,0.202c-0.236,0.065-0.509,0.123-0.818,0.178
		c-0.308,0.05-0.64,0.078-0.991,0.078c-0.609,0-1.142-0.088-1.6-0.256c-0.458-0.17-0.843-0.423-1.157-0.757
		c-0.312-0.335-0.548-0.754-0.708-1.259c-0.157-0.506-0.239-1.092-0.239-1.76c0-0.636,0.085-1.208,0.248-1.718
		c0.165-0.505,0.401-0.937,0.713-1.291c0.309-0.354,0.682-0.622,1.123-0.813c0.438-0.188,0.929-0.283,1.471-0.283
		c0.582,0,1.076,0.092,1.486,0.28c0.407,0.185,0.744,0.438,1.008,0.752c0.264,0.314,0.455,0.685,0.578,1.11
		c0.124,0.426,0.185,0.878,0.185,1.36V222.482z M130.318,226.135c0,0.104-0.008,0.192-0.025,0.267
		c-0.017,0.075-0.036,0.134-0.056,0.183c-0.023,0.045-0.053,0.079-0.093,0.098c-0.036,0.02-0.079,0.029-0.124,0.029h-4.557
		c-0.115,0-0.208-0.04-0.283-0.116c-0.073-0.076-0.11-0.205-0.11-0.387v-0.278c0-0.079,0.006-0.146,0.017-0.208
		c0.011-0.059,0.025-0.121,0.047-0.18c0.023-0.062,0.054-0.124,0.09-0.193c0.04-0.068,0.088-0.147,0.141-0.234l3.266-5.085h-3.168
		c-0.087,0-0.157-0.045-0.208-0.134c-0.053-0.091-0.078-0.239-0.078-0.441c0-0.098,0.005-0.186,0.016-0.259
		c0.012-0.076,0.028-0.134,0.054-0.182c0.025-0.045,0.053-0.079,0.09-0.098c0.036-0.021,0.079-0.029,0.126-0.029h4.246
		c0.062,0,0.115,0.009,0.16,0.026c0.048,0.016,0.087,0.042,0.121,0.08c0.03,0.039,0.058,0.088,0.078,0.149
		c0.017,0.059,0.028,0.137,0.028,0.23v0.261c0,0.079-0.005,0.148-0.016,0.216c-0.012,0.065-0.029,0.131-0.051,0.192
		c-0.02,0.064-0.05,0.132-0.09,0.201c-0.039,0.074-0.084,0.152-0.141,0.239l-3.248,5.085h3.47c0.045,0,0.085,0.008,0.121,0.028
		c0.036,0.019,0.065,0.05,0.09,0.096c0.026,0.042,0.045,0.101,0.062,0.176C130.31,225.942,130.318,226.031,130.318,226.135
		 M123.242,216.598c0,0.321-0.059,0.537-0.18,0.652c-0.12,0.114-0.342,0.171-0.665,0.171c-0.32,0-0.537-0.057-0.654-0.168
		c-0.118-0.112-0.177-0.323-0.177-0.638c0-0.317,0.059-0.533,0.18-0.648c0.12-0.115,0.342-0.174,0.665-0.174
		c0.32,0,0.536,0.056,0.654,0.168C123.183,216.073,123.242,216.287,123.242,216.598 M123.088,226.505
		c0,0.042-0.012,0.082-0.034,0.109c-0.023,0.03-0.059,0.057-0.107,0.078c-0.05,0.023-0.118,0.041-0.205,0.051
		c-0.09,0.012-0.202,0.018-0.339,0.018c-0.13,0-0.239-0.006-0.329-0.018c-0.087-0.01-0.157-0.027-0.208-0.051
		c-0.053-0.021-0.089-0.048-0.107-0.078c-0.019-0.027-0.03-0.067-0.03-0.109v-7.404c0-0.039,0.011-0.073,0.03-0.107
		c0.018-0.033,0.054-0.062,0.107-0.08c0.051-0.023,0.121-0.04,0.208-0.052c0.09-0.011,0.199-0.017,0.329-0.017
		c0.137,0,0.249,0.006,0.339,0.017c0.087,0.012,0.155,0.028,0.205,0.052c0.048,0.019,0.084,0.047,0.107,0.08
		c0.022,0.034,0.034,0.068,0.034,0.107V226.505z M119.934,225.961c0,0.16-0.011,0.286-0.03,0.379
		c-0.023,0.092-0.057,0.163-0.102,0.204c-0.041,0.046-0.109,0.087-0.196,0.124c-0.088,0.039-0.189,0.07-0.301,0.095
		c-0.112,0.026-0.23,0.045-0.356,0.062c-0.127,0.018-0.253,0.026-0.379,0.026c-0.385,0-0.714-0.051-0.989-0.152
		c-0.272-0.104-0.497-0.256-0.674-0.46c-0.174-0.208-0.303-0.465-0.382-0.783c-0.078-0.315-0.117-0.686-0.117-1.115v-4.327h-1.04
		c-0.081,0-0.145-0.042-0.196-0.132c-0.05-0.087-0.073-0.23-0.073-0.427c0-0.104,0.006-0.19,0.02-0.263s0.031-0.13,0.053-0.178
		c0.022-0.045,0.051-0.079,0.087-0.098c0.037-0.021,0.076-0.029,0.118-0.029h1.031v-1.761c0-0.039,0.008-0.072,0.027-0.105
		c0.02-0.034,0.054-0.063,0.107-0.088c0.051-0.025,0.121-0.042,0.211-0.053c0.087-0.012,0.196-0.018,0.328-0.018
		c0.138,0,0.251,0.006,0.338,0.018c0.086,0.011,0.157,0.027,0.204,0.053c0.051,0.025,0.084,0.054,0.107,0.088
		c0.023,0.033,0.034,0.066,0.034,0.105v1.761h1.901c0.042,0,0.081,0.009,0.115,0.029c0.031,0.019,0.062,0.053,0.084,0.098
		c0.025,0.048,0.045,0.105,0.053,0.178c0.012,0.072,0.017,0.159,0.017,0.263c0,0.196-0.022,0.34-0.073,0.427
		c-0.05,0.09-0.115,0.132-0.196,0.132h-1.901v4.131c0,0.511,0.075,0.896,0.224,1.157c0.152,0.258,0.422,0.391,0.812,0.391
		c0.126,0,0.239-0.015,0.337-0.038c0.098-0.024,0.188-0.053,0.264-0.078c0.076-0.027,0.143-0.052,0.197-0.077
		c0.055-0.026,0.103-0.037,0.148-0.037c0.028,0,0.054,0.005,0.079,0.02c0.025,0.014,0.042,0.039,0.056,0.078
		c0.014,0.04,0.028,0.091,0.036,0.155C119.929,225.781,119.934,225.862,119.934,225.961 M113.732,216.598
		c0,0.321-0.059,0.537-0.18,0.652c-0.121,0.114-0.343,0.171-0.666,0.171c-0.32,0-0.536-0.057-0.654-0.168
		c-0.118-0.112-0.177-0.323-0.177-0.638c0-0.317,0.059-0.533,0.18-0.648c0.121-0.115,0.343-0.174,0.666-0.174
		c0.32,0,0.536,0.056,0.654,0.168C113.673,216.073,113.732,216.287,113.732,216.598 M113.577,226.505
		c0,0.042-0.011,0.082-0.033,0.109c-0.023,0.03-0.059,0.057-0.107,0.078c-0.051,0.023-0.118,0.041-0.205,0.051
		c-0.09,0.012-0.202,0.018-0.34,0.018c-0.129,0-0.238-0.006-0.328-0.018c-0.087-0.01-0.158-0.027-0.208-0.051
		c-0.054-0.021-0.09-0.048-0.107-0.078c-0.02-0.027-0.031-0.067-0.031-0.109v-7.404c0-0.039,0.011-0.073,0.031-0.107
		c0.017-0.033,0.053-0.062,0.107-0.08c0.05-0.023,0.121-0.04,0.208-0.052c0.09-0.011,0.199-0.017,0.328-0.017
		c0.138,0,0.25,0.006,0.34,0.017c0.087,0.012,0.154,0.028,0.205,0.052c0.048,0.019,0.084,0.047,0.107,0.08
		c0.022,0.034,0.033,0.068,0.033,0.107V226.505z"/>
	<path clip-path="url(#SVGID_2_)" fill-rule="evenodd" clip-rule="evenodd" fill="#68AADD" d="M23.506,47.112
		c27.526,0,49.848,22.322,49.848,49.847c0,0.112-0.004,0.222-0.004,0.333l0.157,39.796h-17.56l0.135-39.796
		c0.001-0.111,0.004-0.221,0.004-0.333c0-17.99-14.589-32.58-32.58-32.58h-0.041V47.112H23.506z"/>
	<path clip-path="url(#SVGID_2_)" fill-rule="evenodd" clip-rule="evenodd" fill="#68AADD" d="M20.214,47.112
		c0.111,0,0.141,83.437,0.153,90.157H2.807c0.01-6.72,0.128-90.157,0.14-90.157H20.214z"/>
	<path clip-path="url(#SVGID_2_)" fill-rule="evenodd" clip-rule="evenodd" fill="#68AADD" d="M130.253,47.112
		c-27.526,0-49.848,22.322-49.848,49.847c0,0.112,0.004,0.222,0.004,0.333l-0.157,39.796h17.56l-0.135-39.796
		c-0.001-0.111-0.004-0.221-0.004-0.333c0-17.99,14.589-32.58,32.58-32.58h0.041V47.112H130.253z"/>
	<path clip-path="url(#SVGID_2_)" fill-rule="evenodd" clip-rule="evenodd" fill="#F58220" d="M76.897,0
		c14.722,0,26.66,11.939,26.66,26.66c0,14.722-11.938,26.661-26.66,26.661s-26.66-11.939-26.66-26.661
		C50.237,11.939,62.175,0,76.897,0"/>
	<path clip-path="url(#SVGID_2_)" fill="#2E3192" d="M122.127,147.007c0-0.238-0.064-0.443-0.192-0.616
		c-0.13-0.172-0.28-0.293-0.45-0.36c-0.228-0.092-0.448-0.142-0.666-0.152c-0.215-0.007-0.502-0.013-0.863-0.013h-0.375v2.535h0.625
		c0.371,0,0.677-0.023,0.918-0.067c0.24-0.047,0.442-0.139,0.605-0.273c0.14-0.122,0.243-0.267,0.305-0.436
		S122.127,147.25,122.127,147.007 M124.383,146.958c0,0.378-0.066,0.749-0.197,1.11c-0.135,0.362-0.323,0.667-0.569,0.913
		c-0.338,0.332-0.714,0.584-1.129,0.755c-0.416,0.171-0.932,0.256-1.549,0.256h-1.358v2.757h-2.183v-8.463h3.592
		c0.539,0,0.991,0.047,1.362,0.138c0.369,0.094,0.696,0.233,0.979,0.42c0.342,0.223,0.602,0.508,0.783,0.857
		C124.294,146.05,124.383,146.469,124.383,146.958 M115.358,149.686c0,1.045-0.319,1.847-0.955,2.402
		c-0.636,0.558-1.575,0.838-2.813,0.838c-1.24,0-2.177-0.28-2.812-0.838c-0.634-0.556-0.952-1.354-0.952-2.396v-5.406h2.194v5.279
		c0,0.588,0.122,1.025,0.369,1.313c0.246,0.289,0.646,0.433,1.201,0.433c0.545,0,0.943-0.14,1.195-0.415
		c0.252-0.277,0.378-0.719,0.378-1.331v-5.279h2.195V149.686z M103.387,150.663c0.211-0.258,0.368-0.562,0.471-0.911
		c0.103-0.352,0.154-0.763,0.154-1.237c0-0.507-0.058-0.94-0.177-1.296c-0.116-0.355-0.272-0.645-0.46-0.863
		c-0.194-0.229-0.417-0.394-0.667-0.495c-0.252-0.104-0.516-0.153-0.788-0.153c-0.278,0-0.537,0.047-0.781,0.147
		c-0.245,0.099-0.471,0.262-0.674,0.489c-0.19,0.213-0.343,0.504-0.464,0.879c-0.12,0.372-0.178,0.804-0.178,1.298
		c0,0.504,0.056,0.932,0.173,1.288c0.116,0.354,0.267,0.642,0.457,0.867c0.191,0.223,0.411,0.388,0.666,0.494
		c0.254,0.104,0.52,0.159,0.801,0.159c0.279,0,0.547-0.055,0.801-0.163C102.977,151.057,103.196,150.89,103.387,150.663
		 M106.28,148.52c0,1.35-0.387,2.421-1.161,3.215c-0.772,0.793-1.841,1.191-3.205,1.191c-1.36,0-2.427-0.398-3.201-1.191
		c-0.772-0.794-1.158-1.865-1.158-3.215c0-1.36,0.386-2.436,1.158-3.226c0.774-0.791,1.841-1.185,3.201-1.185
		c1.356,0,2.423,0.394,3.199,1.185C105.892,146.084,106.28,147.16,106.28,148.52 M97.095,152.749h-2.666l-2.309-3.104h-1.005v3.104
		h-2.171v-8.463h3.659c0.501,0,0.932,0.028,1.29,0.085c0.361,0.058,0.699,0.18,1.013,0.369c0.318,0.19,0.571,0.436,0.759,0.736
		c0.188,0.302,0.281,0.681,0.281,1.134c0,0.625-0.145,1.135-0.434,1.529c-0.292,0.394-0.704,0.722-1.242,0.983L97.095,152.749z
		 M93.69,146.877c0-0.213-0.045-0.396-0.131-0.547c-0.086-0.15-0.238-0.27-0.449-0.356c-0.147-0.061-0.32-0.098-0.516-0.11
		c-0.198-0.014-0.427-0.021-0.689-0.021h-0.79v2.279h0.669c0.35,0,0.643-0.018,0.877-0.051c0.235-0.035,0.431-0.112,0.59-0.232
		c0.152-0.118,0.264-0.249,0.334-0.39C93.655,147.307,93.69,147.117,93.69,146.877 M86.988,152.266
		c-0.378,0.146-0.88,0.295-1.505,0.44c-0.627,0.146-1.25,0.22-1.87,0.22c-1.44,0-2.567-0.393-3.382-1.175
		c-0.815-0.781-1.223-1.864-1.223-3.244c0-1.313,0.412-2.375,1.235-3.18c0.82-0.805,1.967-1.207,3.438-1.207
		c0.556,0,1.088,0.051,1.591,0.15c0.504,0.1,1.065,0.3,1.682,0.599v1.985h-0.245c-0.105-0.08-0.26-0.192-0.466-0.337
		c-0.203-0.148-0.401-0.272-0.589-0.373c-0.221-0.122-0.478-0.228-0.771-0.313c-0.294-0.087-0.605-0.131-0.935-0.131
		c-0.388,0-0.737,0.056-1.051,0.171c-0.315,0.114-0.598,0.288-0.848,0.523c-0.239,0.227-0.427,0.516-0.564,0.865
		c-0.14,0.352-0.208,0.757-0.208,1.215c0,0.935,0.248,1.65,0.742,2.147c0.497,0.496,1.231,0.745,2.201,0.745
		c0.084,0,0.176-0.002,0.276-0.006c0.1-0.004,0.193-0.01,0.275-0.018v-1.658h-1.688v-1.598h3.905V152.266z M73.483,149.686
		c0,1.045-0.318,1.847-0.954,2.402c-0.637,0.558-1.576,0.838-2.814,0.838c-1.24,0-2.177-0.28-2.811-0.838
		c-0.634-0.556-0.953-1.354-0.953-2.396v-5.406h2.194v5.279c0,0.588,0.123,1.025,0.369,1.313c0.247,0.289,0.646,0.433,1.201,0.433
		c0.546,0,0.943-0.14,1.195-0.415c0.253-0.277,0.379-0.719,0.379-1.331v-5.279h2.194V149.686z M65.117,152.749h-2.666l-2.309-3.104
		h-1.005v3.104h-2.171v-8.463h3.66c0.5,0,0.931,0.028,1.29,0.085c0.361,0.058,0.698,0.18,1.013,0.369
		c0.318,0.19,0.57,0.436,0.758,0.736c0.188,0.302,0.281,0.681,0.281,1.134c0,0.625-0.145,1.135-0.434,1.529
		c-0.291,0.394-0.705,0.722-1.242,0.983L65.117,152.749z M61.712,146.877c0-0.213-0.045-0.396-0.13-0.547
		c-0.087-0.15-0.239-0.27-0.45-0.356c-0.148-0.061-0.32-0.098-0.516-0.11c-0.198-0.014-0.427-0.021-0.689-0.021h-0.79v2.279h0.67
		c0.349,0,0.642-0.018,0.877-0.051c0.235-0.035,0.43-0.112,0.59-0.232c0.151-0.118,0.263-0.249,0.333-0.39
		C61.677,147.307,61.712,147.117,61.712,146.877 M54.808,152.749h-2.183v-3.729h-3.222v3.729h-2.183v-8.463h2.183v3.097h3.222
		v-3.097h2.183V152.749z M45.388,152.749h-6.122v-8.463h6.122v1.636h-3.951v1.461h3.665v1.638h-3.665v2.091h3.951V152.749z
		 M37.105,152.749h-2.103l-3.591-5.809v5.809H29.41v-8.463h2.608l3.086,4.85v-4.85h2.001V152.749z"/>
	<path clip-path="url(#SVGID_2_)" fill="#68AADD" d="M124.592,159.945c0,0.67-0.283,1.213-0.852,1.63
		c-0.566,0.419-1.335,0.628-2.308,0.628c-0.563,0-1.053-0.051-1.47-0.148c-0.419-0.1-0.81-0.224-1.175-0.377v-1.628h0.191
		c0.363,0.29,0.767,0.511,1.216,0.667c0.448,0.155,0.879,0.232,1.293,0.232c0.106,0,0.246-0.009,0.419-0.027
		c0.174-0.02,0.314-0.048,0.424-0.092c0.134-0.055,0.243-0.123,0.331-0.205c0.086-0.081,0.13-0.203,0.13-0.365
		c0-0.149-0.064-0.277-0.19-0.386c-0.126-0.107-0.311-0.189-0.554-0.247c-0.255-0.062-0.524-0.118-0.809-0.171
		c-0.285-0.054-0.551-0.122-0.8-0.203c-0.571-0.187-0.982-0.438-1.234-0.755c-0.251-0.317-0.375-0.712-0.375-1.184
		c0-0.633,0.283-1.147,0.85-1.548c0.566-0.398,1.296-0.599,2.186-0.599c0.447,0,0.889,0.042,1.325,0.129
		c0.435,0.087,0.814,0.196,1.132,0.327v1.562h-0.186c-0.274-0.217-0.609-0.4-1.005-0.549c-0.397-0.146-0.802-0.221-1.216-0.221
		c-0.147,0-0.291,0.011-0.436,0.029c-0.143,0.021-0.283,0.059-0.417,0.112c-0.118,0.045-0.219,0.115-0.305,0.207
		c-0.085,0.094-0.128,0.199-0.128,0.318c0,0.178,0.069,0.316,0.206,0.411c0.137,0.097,0.395,0.185,0.775,0.264
		c0.249,0.051,0.489,0.101,0.717,0.149c0.231,0.05,0.476,0.116,0.741,0.2c0.52,0.171,0.904,0.403,1.152,0.696
		C124.467,159.095,124.592,159.476,124.592,159.945 M117.424,162.08h-1.688l-2.88-4.66v4.66h-1.605v-6.789h2.092l2.476,3.889v-3.889
		h1.605V162.08z M107.594,160.406c0.169-0.206,0.295-0.451,0.378-0.731c0.082-0.281,0.123-0.612,0.123-0.993
		c0-0.406-0.047-0.753-0.142-1.039c-0.093-0.285-0.218-0.517-0.369-0.692c-0.156-0.183-0.334-0.314-0.535-0.397
		c-0.202-0.082-0.414-0.123-0.632-0.123c-0.222,0-0.431,0.039-0.627,0.119c-0.196,0.079-0.377,0.21-0.54,0.392
		c-0.153,0.171-0.276,0.404-0.372,0.705c-0.097,0.299-0.143,0.646-0.143,1.041c0,0.404,0.045,0.749,0.138,1.033
		c0.093,0.285,0.215,0.516,0.367,0.696c0.153,0.179,0.33,0.312,0.534,0.396c0.204,0.084,0.417,0.128,0.643,0.128
		c0.224,0,0.439-0.044,0.643-0.131S107.441,160.588,107.594,160.406 M109.914,158.686c0,1.083-0.31,1.942-0.931,2.579
		c-0.619,0.636-1.477,0.955-2.571,0.955c-1.091,0-1.947-0.319-2.568-0.955c-0.619-0.637-0.929-1.496-0.929-2.579
		c0-1.091,0.31-1.953,0.929-2.587c0.621-0.635,1.477-0.951,2.568-0.951c1.088,0,1.944,0.316,2.567,0.951
		C109.603,156.733,109.914,157.595,109.914,158.686 M101.885,162.08h-3.976v-1.203h1.112v-4.383h-1.112v-1.203h3.976v1.203h-1.113
		v4.383h1.113V162.08z M97.162,156.602h-2.121v5.478H93.29v-5.478h-2.12v-1.312h5.992V156.602z M90.213,159.622
		c0,0.839-0.255,1.481-0.766,1.929c-0.511,0.446-1.264,0.67-2.256,0.67c-0.995,0-1.747-0.224-2.256-0.67
		c-0.509-0.447-0.764-1.088-0.764-1.924v-4.336h1.76v4.234c0,0.472,0.099,0.823,0.296,1.054c0.197,0.231,0.518,0.348,0.964,0.348
		c0.437,0,0.756-0.113,0.958-0.334c0.203-0.222,0.303-0.577,0.303-1.067v-4.234h1.761V159.622z M83.214,156.602h-2.121v5.478h-1.751
		v-5.478h-2.12v-1.312h5.992V156.602z M76.475,162.08h-3.976v-1.203h1.113v-4.383h-1.113v-1.203h3.976v1.203h-1.113v4.383h1.113
		V162.08z M71.752,156.602h-2.121v5.478H67.88v-5.478h-2.12v-1.312h5.992V156.602z M65.24,159.945c0,0.67-0.283,1.213-0.851,1.63
		c-0.566,0.419-1.335,0.628-2.308,0.628c-0.563,0-1.054-0.051-1.471-0.148c-0.419-0.1-0.809-0.224-1.175-0.377v-1.628h0.192
		c0.362,0.29,0.767,0.511,1.215,0.667c0.448,0.155,0.879,0.232,1.293,0.232c0.106,0,0.246-0.009,0.419-0.027
		c0.174-0.02,0.314-0.048,0.425-0.092c0.134-0.055,0.243-0.123,0.33-0.205c0.087-0.081,0.131-0.203,0.131-0.365
		c0-0.149-0.064-0.277-0.19-0.386c-0.126-0.107-0.312-0.189-0.554-0.247c-0.256-0.062-0.525-0.118-0.81-0.171
		c-0.284-0.054-0.55-0.122-0.799-0.203c-0.572-0.187-0.983-0.438-1.235-0.755c-0.25-0.317-0.375-0.712-0.375-1.184
		c0-0.633,0.284-1.147,0.85-1.548c0.566-0.398,1.297-0.599,2.187-0.599c0.446,0,0.888,0.042,1.324,0.129
		c0.436,0.087,0.814,0.196,1.133,0.327v1.562h-0.187c-0.274-0.217-0.609-0.4-1.005-0.549c-0.397-0.146-0.801-0.221-1.216-0.221
		c-0.146,0-0.291,0.011-0.435,0.029c-0.144,0.021-0.284,0.059-0.418,0.112c-0.118,0.045-0.219,0.115-0.305,0.207
		c-0.085,0.094-0.127,0.199-0.127,0.318c0,0.178,0.068,0.316,0.205,0.411c0.137,0.097,0.396,0.185,0.775,0.264
		c0.249,0.051,0.489,0.101,0.718,0.149c0.23,0.05,0.476,0.116,0.741,0.2c0.519,0.171,0.904,0.403,1.151,0.696
		C65.116,159.095,65.24,159.476,65.24,159.945 M58.072,162.08h-1.687l-2.881-4.66v4.66h-1.605v-6.789h2.092l2.476,3.889v-3.889
		h1.605V162.08z M50.472,162.08h-3.976v-1.203h1.113v-4.383h-1.113v-1.203h3.976v1.203h-1.113v4.383h1.113V162.08z M42.403,156.602
		h-3.124v1.265h2.895v1.313h-2.895v2.9h-1.741v-6.789h4.865V156.602z M33.88,160.406c0.17-0.206,0.296-0.451,0.379-0.731
		c0.082-0.281,0.123-0.612,0.123-0.993c0-0.406-0.047-0.753-0.142-1.039c-0.094-0.285-0.218-0.517-0.369-0.692
		c-0.155-0.183-0.334-0.314-0.536-0.397c-0.202-0.082-0.413-0.123-0.631-0.123c-0.223,0-0.431,0.039-0.627,0.119
		c-0.196,0.079-0.377,0.21-0.54,0.392c-0.153,0.171-0.276,0.404-0.372,0.705c-0.097,0.299-0.144,0.646-0.144,1.041
		c0,0.404,0.046,0.749,0.139,1.033c0.093,0.285,0.215,0.516,0.367,0.696c0.152,0.179,0.33,0.312,0.534,0.396
		c0.204,0.084,0.417,0.128,0.643,0.128c0.224,0,0.439-0.044,0.643-0.131S33.728,160.588,33.88,160.406 M36.201,158.686
		c0,1.083-0.31,1.942-0.931,2.579c-0.619,0.636-1.477,0.955-2.571,0.955c-1.091,0-1.947-0.319-2.568-0.955
		c-0.619-0.637-0.929-1.496-0.929-2.579c0-1.091,0.31-1.953,0.929-2.587c0.621-0.635,1.477-0.951,2.568-0.951
		c1.088,0,1.944,0.316,2.567,0.951C35.89,156.733,36.201,157.595,36.201,158.686"/>
	<path clip-path="url(#SVGID_2_)" fill-rule="evenodd" clip-rule="evenodd" fill="#68AADD" d="M151.052,47.112
		c0.224,0,0.113,75.911-0.004,105.714c0,0.11,0.004,0.221,0.004,0.333c0,70-148.417,70.152-148.417,0
		c0-0.112,0.003-0.223,0.004-0.333l0.145-9.095h17.258l-0.136,9.095c-0.001,0.11-0.004,0.221-0.004,0.333
		c0,47.185,113.882,48.409,113.882,0c0-0.112-0.002-0.223-0.003-0.333c-0.052-15.338-0.29-105.714,0.004-105.714H151.052z"/>
	<path clip-path="url(#SVGID_2_)" fill="#2E3192" d="M946.026,66.37c0-1.931-0.518-3.593-1.554-4.991
		c-1.05-1.396-2.259-2.37-3.64-2.917c-1.837-0.737-3.623-1.145-5.382-1.226c-1.742-0.06-4.064-0.108-6.982-0.108h-3.029v20.506
		h5.053c2.995,0,5.476-0.187,7.421-0.547c1.945-0.379,3.578-1.118,4.896-2.212c1.131-0.991,1.962-2.151,2.465-3.517
		C945.774,69.993,946.026,68.33,946.026,66.37 M964.272,65.961c0,3.06-0.533,6.057-1.598,8.975c-1.084,2.933-2.606,5.397-4.599,7.39
		c-2.73,2.682-5.774,4.722-9.132,6.101c-3.357,1.383-7.53,2.072-12.52,2.072h-10.985v22.296h-17.651V44.354h29.045
		c4.358,0,8.016,0.377,11.012,1.115c2.981,0.753,5.632,1.884,7.924,3.388c2.762,1.805,4.865,4.112,6.324,6.936
		C963.552,58.618,964.272,62.008,964.272,65.961 M891.282,88.021c0,8.457-2.572,14.938-7.72,19.44
		c-5.146,4.505-12.741,6.763-22.75,6.763c-10.024,0-17.605-2.258-22.736-6.763c-5.131-4.502-7.703-10.964-7.703-19.392V44.354
		h17.746v42.694c0,4.754,0.987,8.3,2.98,10.621c1.993,2.34,5.225,3.499,9.713,3.499c4.408,0,7.624-1.127,9.664-3.357
		c2.042-2.244,3.062-5.82,3.062-10.763V44.354h17.744V88.021z M794.473,95.928c1.711-2.085,2.982-4.55,3.814-7.371
		c0.83-2.842,1.238-6.168,1.238-10.013c0-4.094-0.472-7.594-1.428-10.48c-0.94-2.872-2.196-5.208-3.718-6.981
		c-1.57-1.836-3.371-3.17-5.398-4.001c-2.04-0.832-4.174-1.24-6.369-1.24c-2.245,0-4.347,0.391-6.321,1.193
		c-1.979,0.799-3.8,2.116-5.446,3.952c-1.539,1.726-2.777,4.08-3.752,7.109c-0.971,3.012-1.443,6.509-1.443,10.496
		c0,4.079,0.456,7.545,1.398,10.418c0.941,2.872,2.165,5.193,3.702,7.014c1.54,1.806,3.328,3.139,5.382,4.001
		c2.055,0.847,4.204,1.286,6.48,1.286c2.261,0,4.426-0.439,6.48-1.318C791.147,99.115,792.936,97.764,794.473,95.928
		 M817.869,78.592c0,10.921-3.123,19.581-9.385,25.999c-6.245,6.416-14.89,9.633-25.92,9.633c-10.999,0-19.629-3.217-25.889-9.633
		c-6.245-6.418-9.367-15.078-9.367-25.999c0-10.999,3.122-19.692,9.367-26.077c6.26-6.403,14.89-9.586,25.889-9.586
		c10.968,0,19.599,3.183,25.872,9.586C814.73,58.899,817.869,67.593,817.869,78.592 M743.591,112.795h-21.559L703.36,87.692h-8.129
		v25.103h-17.558V44.354h29.592c4.048,0,7.532,0.222,10.436,0.691c2.918,0.457,5.648,1.444,8.188,2.982
		c2.575,1.538,4.615,3.513,6.136,5.946c1.523,2.447,2.274,5.506,2.274,9.178c0,5.053-1.175,9.179-3.513,12.365
		c-2.355,3.185-5.695,5.836-10.042,7.954L743.591,112.795z M716.054,65.316c0-1.726-0.361-3.202-1.052-4.424
		c-0.706-1.222-1.931-2.181-3.641-2.886c-1.19-0.486-2.589-0.786-4.173-0.895c-1.6-0.109-3.452-0.172-5.569-0.172h-6.388v18.435
		h5.414c2.823,0,5.193-0.14,7.092-0.409c1.898-0.281,3.482-0.91,4.77-1.88c1.226-0.957,2.133-2.01,2.699-3.154
		C715.771,68.786,716.054,67.248,716.054,65.316 M661.858,108.889c-3.059,1.193-7.123,2.386-12.175,3.564
		c-5.069,1.175-10.104,1.771-15.125,1.771c-11.643,0-20.759-3.17-27.348-9.492c-6.591-6.322-9.887-15.079-9.887-26.233
		c0-10.623,3.328-19.204,9.979-25.72c6.637-6.51,15.911-9.758,27.803-9.758c4.503,0,8.804,0.408,12.866,1.21
		c4.08,0.815,8.615,2.431,13.604,4.848v16.049H659.6c-0.847-0.642-2.1-1.552-3.765-2.727c-1.649-1.194-3.248-2.199-4.771-3.012
		c-1.789-0.99-3.859-1.836-6.229-2.529c-2.385-0.704-4.896-1.066-7.563-1.066c-3.14,0-5.962,0.456-8.505,1.382
		c-2.542,0.924-4.834,2.335-6.854,4.235c-1.932,1.836-3.453,4.174-4.566,6.996c-1.131,2.842-1.679,6.12-1.679,9.824
		c0,7.563,2.008,13.353,6.008,17.369c4.017,4.019,9.949,6.025,17.792,6.025c0.677,0,1.43-0.016,2.229-0.048
		c0.816-0.032,1.57-0.076,2.229-0.139V88.021h-13.65V75.107h31.584V108.889z M552.639,88.021c0,8.457-2.573,14.938-7.717,19.44
		c-5.149,4.505-12.742,6.763-22.752,6.763c-10.026,0-17.605-2.258-22.736-6.763c-5.132-4.502-7.705-10.964-7.705-19.392V44.354
		h17.747v42.694c0,4.754,0.989,8.3,2.982,10.621c1.991,2.34,5.225,3.499,9.712,3.499c4.408,0,7.626-1.127,9.664-3.357
		c2.042-2.244,3.061-5.82,3.061-10.763V44.354h17.744V88.021z M484.982,112.795h-21.557l-18.672-25.103h-8.128v25.103h-17.559
		V44.354h29.594c4.046,0,7.531,0.222,10.433,0.691c2.92,0.457,5.648,1.444,8.19,2.982c2.573,1.538,4.613,3.513,6.135,5.946
		c1.522,2.447,2.276,5.506,2.276,9.178c0,5.053-1.178,9.179-3.515,12.365c-2.355,3.185-5.695,5.836-10.041,7.954L484.982,112.795z
		 M457.447,65.316c0-1.726-0.361-3.202-1.051-4.424c-0.708-1.222-1.931-2.181-3.641-2.886c-1.192-0.486-2.589-0.786-4.173-0.895
		c-1.601-0.109-3.452-0.172-5.57-0.172h-6.386v18.435h5.413c2.824,0,5.194-0.14,7.092-0.409c1.898-0.281,3.482-0.91,4.769-1.88
		c1.226-0.957,2.133-2.01,2.7-3.154C457.164,68.786,457.447,67.248,457.447,65.316 M401.604,112.795h-17.65V82.641h-26.063v30.155
		H340.24V44.354h17.651v25.043h26.063V44.354h17.65V112.795z M325.429,112.795h-49.504V44.354h49.504v13.229h-31.947v11.814h29.64
		v13.243h-29.64v16.913h31.947V112.795z M258.447,112.795h-17.008L212.395,65.82v46.976h-16.177V44.354h21.087l24.964,39.212V44.354
		h16.178V112.795z"/>
	<path clip-path="url(#SVGID_2_)" fill="#68AADD" d="M965.959,170.998c0,5.408-2.289,9.803-6.884,13.177
		c-4.581,3.386-10.8,5.072-18.666,5.072c-4.557,0-8.521-0.404-11.896-1.196c-3.384-0.806-6.543-1.814-9.502-3.046v-13.166h1.549
		c2.934,2.343,6.205,4.128,9.829,5.389c3.626,1.257,7.113,1.876,10.459,1.876c0.856,0,1.989-0.063,3.385-0.214
		c1.411-0.152,2.544-0.391,3.438-0.743c1.082-0.44,1.963-0.997,2.669-1.663c0.703-0.652,1.056-1.635,1.056-2.944
		c0-1.207-0.516-2.24-1.536-3.122c-1.019-0.868-2.518-1.534-4.48-1.999c-2.065-0.493-4.24-0.957-6.544-1.387
		c-2.303-0.426-4.455-0.98-6.469-1.636c-4.619-1.512-7.941-3.536-9.981-6.104c-2.027-2.569-3.033-5.767-3.033-9.577
		c0-5.111,2.29-9.278,6.872-12.513c4.581-3.233,10.484-4.845,17.684-4.845c3.612,0,7.186,0.339,10.711,1.044
		c3.523,0.705,6.583,1.587,9.163,2.643v12.637h-1.512c-2.216-1.76-4.922-3.246-8.131-4.443c-3.209-1.183-6.479-1.786-9.83-1.786
		c-1.183,0-2.353,0.088-3.521,0.237c-1.158,0.166-2.292,0.468-3.374,0.909c-0.957,0.364-1.775,0.93-2.467,1.671
		c-0.692,0.757-1.032,1.613-1.032,2.569c0,1.448,0.553,2.567,1.661,3.335c1.108,0.781,3.197,1.487,6.268,2.128
		c2.013,0.415,3.952,0.817,5.802,1.208c1.864,0.403,3.852,0.944,5.992,1.623c4.203,1.386,7.312,3.262,9.313,5.628
		C964.953,164.124,965.959,167.208,965.959,170.998 M907.988,188.25h-13.645l-23.296-37.681v37.681H858.07v-54.9h16.916
		l20.024,31.452V133.35h12.978V188.25z M828.494,174.721c1.371-1.673,2.391-3.651,3.057-5.916c0.668-2.278,0.996-4.947,0.996-8.028
		c0-3.284-0.378-6.093-1.146-8.408c-0.755-2.304-1.764-4.179-2.982-5.601c-1.258-1.474-2.706-2.542-4.329-3.21
		c-1.637-0.666-3.349-0.994-5.111-0.994c-1.799,0-3.485,0.314-5.071,0.956c-1.586,0.644-3.047,1.699-4.366,3.171
		c-1.235,1.388-2.229,3.272-3.009,5.702c-0.78,2.417-1.159,5.225-1.159,8.422c0,3.271,0.363,6.053,1.121,8.354
		c0.755,2.303,1.735,4.169,2.969,5.629c1.233,1.446,2.669,2.517,4.317,3.208c1.648,0.682,3.375,1.033,5.198,1.033
		c1.813,0,3.549-0.352,5.199-1.059C825.825,177.276,827.259,176.192,828.494,174.721 M847.258,160.815
		c0,8.759-2.503,15.706-7.526,20.854c-5.009,5.147-11.944,7.729-20.792,7.729c-8.821,0-15.745-2.581-20.767-7.729
		c-5.009-5.147-7.515-12.095-7.515-20.854c0-8.823,2.506-15.796,7.515-20.918c5.021-5.137,11.945-7.691,20.767-7.691
		c8.799,0,15.721,2.555,20.754,7.691C844.742,145.019,847.258,151.992,847.258,160.815 M782.328,188.25H750.17v-9.728h9V143.08h-9
		v-9.729h32.158v9.729h-8.999v35.443h8.999V188.25z M744.129,143.961h-17.154v44.289h-14.159v-44.289h-17.142V133.35h48.455V143.961
		z M687.933,168.378c0,6.783-2.063,11.979-6.192,15.595c-4.129,3.611-10.222,5.424-18.248,5.424c-8.045,0-14.123-1.813-18.239-5.424
		c-4.115-3.615-6.178-8.799-6.178-15.556V133.35h14.232v34.246c0,3.816,0.794,6.661,2.393,8.521c1.599,1.877,4.19,2.81,7.792,2.81
		c3.534,0,6.115-0.907,7.754-2.695c1.635-1.798,2.451-4.668,2.451-8.635V133.35h14.235V168.378z M631.334,143.961h-17.156v44.289
		h-14.159v-44.289h-17.141V133.35h48.456V143.961z M576.837,188.25h-32.158v-9.728h8.999V143.08h-8.999v-9.729h32.158v9.729h-8.999
		v35.443h8.999V188.25z M538.636,143.961h-17.153v44.289h-14.158v-44.289h-17.143V133.35h48.454V143.961z M485.977,170.998
		c0,5.408-2.289,9.803-6.885,13.177c-4.581,3.386-10.797,5.072-18.664,5.072c-4.555,0-8.521-0.404-11.894-1.196
		c-3.386-0.806-6.545-1.814-9.503-3.046v-13.166h1.549c2.931,2.343,6.204,4.128,9.83,5.389c3.624,1.257,7.11,1.876,10.458,1.876
		c0.856,0,1.989-0.063,3.386-0.214c1.411-0.152,2.543-0.391,3.435-0.743c1.084-0.44,1.965-0.997,2.669-1.663
		c0.705-0.652,1.057-1.635,1.057-2.944c0-1.207-0.516-2.24-1.534-3.122c-1.021-0.868-2.518-1.534-4.482-1.999
		c-2.063-0.493-4.24-0.957-6.545-1.387c-2.303-0.426-4.456-0.98-6.468-1.636c-4.619-1.512-7.942-3.536-9.98-6.104
		c-2.027-2.569-3.033-5.767-3.033-9.577c0-5.111,2.289-9.278,6.871-12.513c4.581-3.233,10.484-4.845,17.682-4.845
		c3.615,0,7.187,0.339,10.711,1.044c3.526,0.705,6.584,1.587,9.164,2.643v12.637h-1.51c-2.216-1.76-4.923-3.246-8.131-4.443
		c-3.209-1.183-6.482-1.786-9.83-1.786c-1.184,0-2.354,0.088-3.525,0.237c-1.158,0.166-2.29,0.468-3.374,0.909
		c-0.955,0.364-1.772,0.93-2.465,1.671c-0.693,0.757-1.032,1.613-1.032,2.569c0,1.448,0.553,2.567,1.661,3.335
		c1.108,0.781,3.198,1.487,6.267,2.128c2.014,0.415,3.952,0.817,5.803,1.208c1.863,0.403,3.851,0.944,5.991,1.623
		c4.204,1.386,7.312,3.262,9.312,5.628C484.971,164.124,485.977,167.208,485.977,170.998 M428.006,188.25h-13.643l-23.298-37.681
		v37.681H378.09v-54.9h16.915l20.025,31.452V133.35h12.976V188.25z M366.549,188.25h-32.157v-9.728h8.998V143.08h-8.998v-9.729
		h32.157v9.729h-8.999v35.443h8.999V188.25z M301.289,143.961h-25.258v10.219h23.408v10.622h-23.408v23.448h-14.085v-54.9h39.343
		V143.961z M232.368,174.721c1.372-1.673,2.392-3.651,3.059-5.916c0.667-2.278,0.995-4.947,0.995-8.028
		c0-3.284-0.379-6.093-1.145-8.408c-0.756-2.304-1.764-4.179-2.983-5.601c-1.26-1.474-2.707-2.542-4.331-3.21
		c-1.636-0.666-3.349-0.994-5.11-0.994c-1.799,0-3.486,0.314-5.072,0.956c-1.585,0.644-3.046,1.699-4.367,3.171
		c-1.234,1.388-2.228,3.272-3.008,5.702c-0.781,2.417-1.158,5.225-1.158,8.422c0,3.271,0.365,6.053,1.12,8.354
		c0.756,2.303,1.736,4.169,2.969,5.629c1.234,1.446,2.67,2.517,4.318,3.208c1.648,0.682,3.374,1.033,5.198,1.033
		c1.812,0,3.549-0.352,5.199-1.059C229.699,177.276,231.134,176.192,232.368,174.721 M251.134,160.815
		c0,8.759-2.504,15.706-7.527,20.854c-5.009,5.147-11.944,7.729-20.792,7.729c-8.823,0-15.744-2.581-20.767-7.729
		c-5.009-5.147-7.514-12.095-7.514-20.854c0-8.823,2.505-15.796,7.514-20.918c5.023-5.137,11.944-7.691,20.767-7.691
		c8.798,0,15.721,2.555,20.755,7.691C248.617,145.019,251.134,151.992,251.134,160.815"/>
	<path clip-path="url(#SVGID_2_)" d="M202.8,231.383v-22.125h-8.265v-2.962h19.883v2.962h-8.3v22.125H202.8z M237.937,231.383
		l9.639-25.087h3.575l10.266,25.087h-3.783l-2.926-7.599h-10.491l-2.753,7.599H237.937z M245.176,221.082h8.51l-2.624-6.945
		c-0.795-2.11-1.39-3.843-1.775-5.204c-0.321,1.61-0.773,3.206-1.355,4.793L245.176,221.082z M289.434,231.383v-25.087h5
		l5.936,17.761c0.547,1.653,0.952,2.893,1.197,3.716c0.283-0.912,0.73-2.254,1.335-4.024l6.006-17.452h4.467v25.087h-3.201v-20.998
		l-7.288,20.998h-2.998l-7.254-21.355v21.355H289.434z M344.768,206.296h3.318v25.087h-3.318V206.296z M379.267,231.383v-25.087
		h3.324v22.125h12.354v2.962H379.267z M424.336,231.383v-25.087h3.404l13.175,19.696v-19.696h3.185v25.087h-3.406l-13.176-19.712
		v19.712H424.336z M472.39,231.383l9.64-25.087h3.573l10.269,25.087h-3.784l-2.926-7.599h-10.49l-2.753,7.599H472.39z
		 M479.628,221.082h8.511l-2.624-6.945c-0.795-2.11-1.388-3.843-1.774-5.204c-0.32,1.61-0.773,3.206-1.355,4.793L479.628,221.082z
		 M523.992,231.383v-25.087h8.638c1.951,0,3.441,0.122,4.469,0.362c1.438,0.326,2.662,0.93,3.679,1.794
		c1.32,1.121,2.314,2.546,2.97,4.285c0.658,1.741,0.985,3.728,0.985,5.964c0,1.906-0.221,3.593-0.672,5.064
		c-0.442,1.473-1.011,2.694-1.71,3.658c-0.695,0.964-1.455,1.722-2.285,2.27c-0.823,0.557-1.822,0.978-2.99,1.265
		c-1.173,0.283-2.518,0.425-4.028,0.425H523.992z M527.31,228.421h5.356c1.652,0,2.956-0.151,3.896-0.461
		c0.939-0.311,1.688-0.741,2.248-1.303c0.789-0.782,1.401-1.846,1.838-3.171c0.438-1.332,0.661-2.937,0.661-4.837
		c0-2.623-0.432-4.638-1.29-6.045c-0.863-1.413-1.911-2.354-3.143-2.832c-0.888-0.345-2.325-0.515-4.292-0.515h-5.275V228.421z
		 M591.231,206.296h3.322v14.499c0,2.517-0.287,4.52-0.857,6.003c-0.573,1.481-1.601,2.687-3.091,3.617
		c-1.487,0.933-3.439,1.393-5.857,1.393c-2.35,0-4.276-0.403-5.766-1.213c-1.494-0.806-2.564-1.981-3.199-3.516
		c-0.645-1.538-0.958-3.628-0.958-6.284v-14.499h3.316v14.479c0,2.18,0.204,3.785,0.608,4.813c0.402,1.035,1.103,1.829,2.085,2.391
		c0.986,0.56,2.196,0.84,3.62,0.84c2.441,0,4.182-0.553,5.221-1.664c1.035-1.104,1.556-3.23,1.556-6.379V206.296z"/>
	<path clip-path="url(#SVGID_2_)" d="M637.052,218.714c0-2.793,0.987-5.182,2.969-7.161c1.978-1.979,4.368-2.966,7.166-2.966
		c2.793,0,5.179,0.986,7.168,2.966c1.984,1.979,2.977,4.368,2.977,7.161c0,2.8-0.992,5.187-2.977,7.168
		c-1.989,1.978-4.375,2.966-7.168,2.966c-2.798,0-5.188-0.988-7.166-2.966C638.039,223.901,637.052,221.514,637.052,218.714"/>
	<path clip-path="url(#SVGID_2_)" d="M702.821,231.384v-25.088h3.324v12.441l12.459-12.441h4.496l-10.524,10.165l10.987,14.923
		h-4.381l-8.933-12.698l-4.104,4.005v8.693H702.821z M751.876,231.384v-25.088h18.136v2.961h-14.817v7.681h13.877v2.946h-13.877
		v8.538h15.402v2.962H751.876z M800.704,231.384v-25.088h11.119c2.239,0,3.939,0.228,5.101,0.678
		c1.163,0.45,2.092,1.245,2.792,2.383c0.694,1.147,1.037,2.406,1.037,3.786c0,1.78-0.568,3.275-1.728,4.497
		c-1.149,1.219-2.932,1.998-5.337,2.331c0.881,0.419,1.546,0.834,2.005,1.248c0.967,0.887,1.885,2.004,2.754,3.336l4.365,6.829
		h-4.178l-3.317-5.223c-0.971-1.501-1.771-2.657-2.402-3.451c-0.625-0.802-1.185-1.361-1.679-1.679c-0.498-0.32-1-0.543-1.514-0.669
		c-0.381-0.076-0.992-0.118-1.853-0.118h-3.849v11.14H800.704z M804.021,217.372h7.138c1.511,0,2.704-0.158,3.557-0.476
		c0.858-0.314,1.507-0.814,1.951-1.504c0.444-0.691,0.666-1.437,0.666-2.249c0-1.186-0.428-2.161-1.293-2.926
		c-0.856-0.766-2.219-1.147-4.082-1.147h-7.937V217.372z M848.672,231.384l9.64-25.088h3.573l10.268,25.088h-3.784l-2.925-7.599
		h-10.49l-2.754,7.599H848.672z M855.909,221.082h8.511l-2.624-6.946c-0.793-2.108-1.389-3.842-1.773-5.204
		c-0.323,1.611-0.773,3.206-1.355,4.795L855.909,221.082z M900.132,231.384v-25.088h3.325v22.126h12.354v2.962H900.132z
		 M942.479,231.384l9.638-25.088h3.575l10.267,25.088h-3.785l-2.926-7.599h-10.489l-2.753,7.599H942.479z M949.715,221.082h8.512
		l-2.624-6.946c-0.795-2.108-1.39-3.842-1.776-5.204c-0.321,1.611-0.771,3.206-1.353,4.795L949.715,221.082z"/>
</g>
</svg>
